<svg id="Layer_1" data-name="Layer 1" xmlns="http://www.w3.org/2000/svg" xmlns:xlink="http://www.w3.org/1999/xlink" viewBox="0 0 388.87 388.28"><defs><style>.cls-1{stroke-miterlimit:10;fill:url(#linear-gradient);stroke:url(#linear-gradient-2);}</style><linearGradient id="linear-gradient" x1="50.45" y1="250" x2="438.32" y2="250" gradientUnits="userSpaceOnUse"><stop offset="0" stop-color="#26246b"/><stop offset="0.05" stop-color="#442972"/><stop offset="0.15" stop-color="#903585"/><stop offset="0.24" stop-color="#e04298"/><stop offset="0.3" stop-color="#e14592"/><stop offset="0.37" stop-color="#e34c80"/><stop offset="0.46" stop-color="#e85863"/><stop offset="0.55" stop-color="#ed693b"/><stop offset="0.56" stop-color="#ee6b36"/><stop offset="0.88" stop-color="#f6ec21"/></linearGradient><linearGradient id="linear-gradient-2" x1="55.56" y1="250" x2="444.44" y2="250" gradientUnits="userSpaceOnUse"><stop offset="0" stop-color="#2b3d98"/><stop offset="0.01" stop-color="#424c88"/><stop offset="0.05" stop-color="#746d68"/><stop offset="0.08" stop-color="#9e884c"/><stop offset="0.11" stop-color="#c09f35"/><stop offset="0.15" stop-color="#dbb123"/><stop offset="0.18" stop-color="#eebd16"/><stop offset="0.22" stop-color="#f9c50e"/><stop offset="0.25" stop-color="#fdc70c"/><stop offset="0.67" stop-color="#f3903f"/><stop offset="0.89" stop-color="#ed683c"/><stop offset="1" stop-color="#e93e3a"/></linearGradient></defs><path class="cls-1" d="M409.35,141.24c-2.13-3.11-7.07-6.1-10.72-6.12-67.16-.34-134.32-.79-201.47,0-38.38.46-65.46,31.48-64.53,71.29.84,36.36,31.59,66.41,67.83,66.35,22.89,0,45.79-.23,68.68.06,18.2.23,29.9,16.78,24.55,34.07-3.4,11-13.24,18.15-26.14,18.18-55.33.12-166,0-166,0a4.82,4.82,0,0,1-4.84-4.82V98.09a1.7,1.7,0,0,1,1.7-1.71H361.72a1.71,1.71,0,0,0,1-3.07h0c-1.78-1.38-3.6-2.72-5.48-4-32.71-21.83-68.64-32.95-107.88-33-61,0-183.16,0-183.16,0l-8.44,0a1.71,1.71,0,0,0-1.72,1.71V363.66a1.71,1.71,0,0,0,1.72,1.71c68.76,0,136.45,0,204.15,0,24.23,0,43.38-7.73,55.9-21.5,20.09-22.1,16.48-54.4,16.24-56.33-.78-6.16-2.36-18.54-11.19-30.3-19-25.32-55.63-26.31-66.31-26.59-5.93-.16-16.52.06-26.09.57-.33,0-15.32-.42-33.42-.29-11.56.09-18.64-6.11-22.44-16.14-7.8-20.54,5-39.33,26.88-39.41,57.62-.18,115.24.08,172.85-.22,7.23,0,10.91,2.29,13.7,8.86,21.76,51.19,19.89,101.27-9.72,148.46-26.74,42.61-66.42,67.95-117,69.83-63.64,2.36-127.41,1-191.12,1.27-4,0-7.91,0-12,0a2.25,2.25,0,0,0-2.11,1.9v36.25a2.28,2.28,0,0,0,2.11,1.92h8q92.14,0,184.3,0c82.1,0,174.87-55.69,191.52-170.59C448.94,225.68,436.52,181.08,409.35,141.24Z" transform="translate(-55.56 -55.86)"/></svg>