<svg id="Layer_1" data-name="Layer 1" xmlns="http://www.w3.org/2000/svg" xmlns:xlink="http://www.w3.org/1999/xlink" viewBox="0 0 397.88 397.28"><defs><style>.cls-1{fill:none;stroke-miterlimit:10;stroke-width:10px;stroke:url(#linear-gradient);}</style><linearGradient id="linear-gradient" x1="51.06" y1="250" x2="448.94" y2="250" gradientUnits="userSpaceOnUse"><stop offset="0" stop-color="#2b3d98"/><stop offset="0.01" stop-color="#424c88"/><stop offset="0.05" stop-color="#746d68"/><stop offset="0.08" stop-color="#9e884c"/><stop offset="0.11" stop-color="#c09f35"/><stop offset="0.15" stop-color="#dbb123"/><stop offset="0.18" stop-color="#eebd16"/><stop offset="0.22" stop-color="#f9c50e"/><stop offset="0.25" stop-color="#fdc70c"/><stop offset="0.67" stop-color="#f3903f"/><stop offset="0.89" stop-color="#ed683c"/><stop offset="1" stop-color="#e93e3a"/></linearGradient></defs><path class="cls-1" d="M442.08,273c-16.65,114.9-109.42,170.62-191.52,170.59q-92.16,0-184.3,0h-8a2.28,2.28,0,0,1-2.11-1.92V405.47a2.25,2.25,0,0,1,2.11-1.9c4.11,0,8.06,0,12,0,63.71-.25,127.48,1.09,191.12-1.27,50.55-1.88,90.23-27.22,117-69.83,29.61-47.19,31.48-97.27,9.72-148.46-2.79-6.57-6.47-8.9-13.7-8.86-57.61.3-115.23,0-172.85.22-21.92.08-34.68,18.87-26.88,39.41,3.8,10,10.88,16.23,22.44,16.14,18.1-.13,33.09.3,33.42.29,9.57-.51,20.16-.73,26.09-.57,10.68.28,47.28,1.27,66.31,26.59,8.83,11.76,10.41,24.14,11.19,30.3.24,1.93,3.85,34.23-16.24,56.33-12.52,13.77-31.67,21.49-55.9,21.5-67.7,0-135.39,0-204.15,0a1.71,1.71,0,0,1-1.72-1.71V58.08a1.71,1.71,0,0,1,1.72-1.71l8.44,0s122.11,0,183.16,0c39.24,0,75.17,11.13,107.88,33,1.88,1.26,3.7,2.6,5.48,4h0a1.71,1.71,0,0,1-1,3.07H98.43a1.7,1.7,0,0,0-1.7,1.71V320.27a4.82,4.82,0,0,0,4.84,4.82s110.66.11,166,0c12.9,0,22.74-7.2,26.14-18.18,5.35-17.29-6.35-33.84-24.55-34.07-22.89-.29-45.79-.1-68.68-.06-36.24.06-67-30-67.83-66.35-.93-39.81,26.15-70.83,64.53-71.29,67.15-.8,134.31-.35,201.47,0,3.65,0,8.59,3,10.72,6.12C436.52,181.08,448.94,225.68,442.08,273Z" transform="translate(-51.06 -51.36)"/></svg>