<svg width="500" height="500" viewBox="0 0 500 500" fill="none" xmlns="http://www.w3.org/2000/svg">
<g id="up_down_menu_bar">
<circle id="back_circle" cx="250" cy="250" r="250" fill="#400081"/>
<g id="mid_ani_triangle">
<path id="coveup_up" d="M250.501 273L220.623 246.75L280.378 246.75L250.501 273Z" fill="#400081"/>
<g id="vector_arrow_white">
<path id="Vector" fill-rule="evenodd" clip-rule="evenodd" d="M108.679 212.782C97.7444 203.246 97.7444 186.25 108.679 176.714V176.714C117.691 168.856 131.121 168.856 140.132 176.714L233.912 258.496C243.328 266.707 257.359 266.707 266.775 258.496L360.555 176.714C369.567 168.856 382.996 168.856 392.008 176.714V176.714C402.943 186.25 402.943 203.246 392.008 212.782L266.775 321.993C257.359 330.204 243.328 330.204 233.912 321.993L108.679 212.782Z" fill="white"/>
<path id="vector2" d="M254.526 333.357C252.241 335.425 248.76 335.425 246.475 333.357L233.037 321.199C228.965 317.515 231.572 310.75 237.063 310.75L263.938 310.75C269.429 310.75 272.036 317.515 267.964 321.199L254.526 333.357Z" fill="white"/>
</g>
</g>
</g>
</svg>
